<?xml version="1.0" encoding="UTF-8"?>
<svg xmlns="http://www.w3.org/2000/svg" version="1.1" xmlns:xlink="http://www.w3.org/1999/xlink" viewBox="0 0 168 27">
  <defs>
    <style>
      .cls-1 {
        fill: url(#linear-gradient);
      }

      .cls-1, .cls-2, .cls-3, .cls-4, .cls-5, .cls-6, .cls-7, .cls-8, .cls-9, .cls-10, .cls-11 {
        stroke-width: 0px;
      }

      .cls-2, .cls-4, .cls-12 {
        fill: #000;
      }

      .cls-3 {
        fill: url(#linear-gradient-6);
      }

      .cls-13 {
        mix-blend-mode: screen;
      }

      .cls-13, .cls-4, .cls-7, .cls-14, .cls-15, .cls-16 {
        display: none;
      }

      .cls-17 {
        isolation: isolate;
      }

      .cls-18, .cls-12, .cls-14 {
        stroke-miterlimit: 10;
      }

      .cls-18, .cls-14 {
        stroke: #000;
      }

      .cls-18, .cls-14, .cls-15, .cls-19 {
        fill: none;
      }

      .cls-5 {
        fill: url(#linear-gradient-11);
      }

      .cls-6 {
        fill: url(#linear-gradient-5);
      }

      .cls-7 {
        fill: url(#linear-gradient-8);
      }

      .cls-12 {
        stroke: #fff;
      }

      .cls-15 {
        stroke: url(#linear-gradient-9);
      }

      .cls-15, .cls-19 {
        stroke-width: .5px;
      }

      .cls-8 {
        fill: url(#linear-gradient-2);
      }

      .cls-9 {
        fill: url(#linear-gradient-7);
      }

      .cls-10 {
        fill: url(#linear-gradient-3);
      }

      .cls-19 {
        stroke: url(#linear-gradient-10);
      }

      .cls-11 {
        fill: url(#linear-gradient-4);
      }
    </style>
    <linearGradient id="linear-gradient" x1="31.4" y1="26.2" x2="31.7" y2="26.2" gradientTransform="translate(0 28) scale(1 -1)" gradientUnits="userSpaceOnUse">
      <stop offset="0" stop-color="#26a4ff"/>
      <stop offset="1" stop-color="#0d9aff"/>
    </linearGradient>
    <linearGradient id="linear-gradient-2" x1="5.3" y1="22.4" x2="6.1" y2="22.4" gradientTransform="translate(0 28) scale(1 -1)" gradientUnits="userSpaceOnUse">
      <stop offset="0" stop-color="#26a4ff"/>
      <stop offset="1" stop-color="#0d9aff"/>
    </linearGradient>
    <linearGradient id="linear-gradient-3" x1="1.1" y1="10" x2="1.9" y2="10" gradientTransform="translate(0 28) scale(1 -1)" gradientUnits="userSpaceOnUse">
      <stop offset="0" stop-color="#26a4ff"/>
      <stop offset="1" stop-color="#0d9aff"/>
    </linearGradient>
    <linearGradient id="linear-gradient-4" x1="25.2" y1="6.6" x2="26" y2="6.6" gradientTransform="translate(0 28) scale(1 -1)" gradientUnits="userSpaceOnUse">
      <stop offset="0" stop-color="#26a4ff"/>
      <stop offset="1" stop-color="#0d9aff"/>
    </linearGradient>
    <linearGradient id="linear-gradient-5" x1="6.4" y1="13.5" x2="6.7" y2="13.5" gradientTransform="translate(0 28) scale(1 -1)" gradientUnits="userSpaceOnUse">
      <stop offset="0" stop-color="#26a4ff"/>
      <stop offset="1" stop-color="#0d9aff"/>
    </linearGradient>
    <linearGradient id="linear-gradient-6" x1="12.3" y1="26.7" x2="12.8" y2="26.7" gradientTransform="translate(0 28) scale(1 -1)" gradientUnits="userSpaceOnUse">
      <stop offset="0" stop-color="#26a4ff"/>
      <stop offset="1" stop-color="#0d9aff"/>
    </linearGradient>
    <linearGradient id="linear-gradient-7" x1="4.2" y1="16.6" x2="1.8" y2="16.2" gradientTransform="translate(0 28) scale(1 -1)" gradientUnits="userSpaceOnUse">
      <stop offset="0" stop-color="#26a4ff"/>
      <stop offset="1" stop-color="#0d9aff"/>
    </linearGradient>
    <linearGradient id="linear-gradient-8" x1="2.7" y1="27.4" x2="27.6" y2="3.4" gradientTransform="translate(0 28) scale(1 -1)" gradientUnits="userSpaceOnUse">
      <stop offset="0" stop-color="#868cff"/>
      <stop offset="1" stop-color="#4318ff"/>
    </linearGradient>
    <linearGradient id="linear-gradient-9" x1="14.4" y1="7.9" x2="13.3" y2="10.9" gradientTransform="translate(0 28) scale(1 -1)" gradientUnits="userSpaceOnUse">
      <stop offset="0" stop-color="#3f5fff"/>
      <stop offset="1" stop-color="#3f5fff" stop-opacity="0"/>
    </linearGradient>
    <linearGradient id="linear-gradient-10" x1="14.4" y1="7.9" x2="13.3" y2="10.9" gradientTransform="translate(0 28) scale(1 -1)" gradientUnits="userSpaceOnUse">
      <stop offset="0" stop-color="#1da0ff"/>
      <stop offset="1" stop-color="#199fff" stop-opacity=".1"/>
    </linearGradient>
    <linearGradient id="linear-gradient-11" x1="25.7" y1="22.2" x2="22.3" y2="22.6" gradientTransform="translate(0 28) scale(1 -1)" gradientUnits="userSpaceOnUse">
      <stop offset="0" stop-color="#26a4ff"/>
      <stop offset="1" stop-color="#0d9aff"/>
    </linearGradient>
  </defs>
  <g class="cls-17">
    <g id="Layer_1" data-name="Layer 1">
      <g class="cls-16">
        <path class="cls-1" d="M31.5,1.9c0,0,.2,0,.2-.2s0-.2-.2-.2-.2,0-.2.2,0,.2.2.2Z"/>
      </g>
      <g class="cls-16">
        <path class="cls-8" d="M5.7,6c.2,0,.4-.2.4-.4s-.2-.4-.4-.4-.4.2-.4.4.2.4.4.4Z"/>
      </g>
      <g class="cls-16">
        <path class="cls-10" d="M1.5,18.4c.2,0,.4-.2.4-.4s-.2-.4-.4-.4-.4.2-.4.4.2.4.4.4Z"/>
      </g>
      <g class="cls-16">
        <path class="cls-11" d="M25.5,21.8c.2,0,.4-.2.4-.4s-.2-.4-.4-.4-.4.2-.4.4.2.4.4.4Z"/>
      </g>
      <g class="cls-16">
        <path class="cls-6" d="M6.5,14.7c0,0,.2,0,.2-.2s0-.2-.2-.2-.2,0-.2.2,0,.2.2.2Z"/>
      </g>
      <g class="cls-16">
        <path class="cls-3" d="M12.5,1.5c.1,0,.2-.1.2-.3s-.1-.3-.2-.3-.2.1-.2.3.1.3.2.3Z"/>
      </g>
      <g class="cls-16">
        <path class="cls-9" d="M3.2,12.9c0,0-.2,0-.2-.1-.2-.8-.3-.8-1.1-.8,0,0-.2,0-.2-.1,0,0,0-.2.1-.2.7-.2.8-.3.8-1.1,0,0,0-.2.1-.2,0,0,.2,0,.2.1.2.8.3.8,1.1.8,0,0,.2,0,.2.1,0,0,0,.2-.1.2-.7.2-.8.3-.8,1.1,0,0,0,.2-.1.2Z"/>
      </g>
      <path class="cls-7" d="M16.6,6.2c-.2,0-.4.3-.4.5s.1.4.4.5c1.7.7,3,2,3.6,3.8,0,.2.3.4.5.4s.4-.1.5-.4c.6-1.8,2-3.1,3.6-3.8.2,0,.4-.3.4-.5s-.1-.4-.4-.5c-1.7-.7-3-2-3.6-3.8,0-.2-.3-.4-.5-.4s-.4.1-.5.4c-.6,1.8-2,3.1-3.6,3.8ZM10.9,5.6c-.1-.3-.4-.5-.7-.5s-.6.2-.7.5c-1.6,3.6-4.4,6.5-7.8,8.1-.3.1-.4.4-.4.7s.2.6.4.7c3.4,1.7,6.2,4.5,7.8,8.1.1.3.4.5.7.5s.6-.2.7-.5c1.6-3.6,4.4-6.5,7.8-8.1.3-.1.4-.4.4-.7s-.2-.6-.4-.7c-3.4-1.7-6.2-4.5-7.8-8.1ZM20.3,18c-.6,1.8-2,3.1-3.6,3.8-.2,0-.4.3-.4.5s.1.4.4.5c1.7.7,3,2,3.6,3.8,0,.2.3.4.5.4s.4-.1.5-.4c.6-1.8,2-3.1,3.6-3.8.2,0,.4-.3.4-.5s-.1-.4-.4-.5c-1.7-.7-3-2-3.6-3.8,0-.2-.3-.4-.5-.4s-.4.1-.5.4Z"/>
      <path class="cls-15" d="M13,16.1C5.8,18.7.3,21.8.8,23.1c.4,1.3,6.6.2,13.7-2.4,7.2-2.6,12.6-5.7,12.2-7-.4-1.3-6.6-.2-13.7,2.4Z"/>
      <g class="cls-13">
        <path class="cls-19" d="M13,16.1C5.8,18.7.3,21.8.8,23.1c.4,1.3,6.6.2,13.7-2.4,7.2-2.6,12.6-5.7,12.2-7-.4-1.3-6.6-.2-13.7,2.4Z"/>
      </g>
      <g class="cls-16">
        <path class="cls-5" d="M23.9,7.4c-.1,0-.2-.1-.2-.2,0-1.1-.1-1.3-1.1-1.5-.1,0-.2-.1-.2-.3,0-.1.1-.2.2-.2,1,0,1.1-.1,1.5-1.1,0-.1.1-.2.2-.2.1,0,.2.1.2.2,0,1.1.1,1.3,1.1,1.5.1,0,.2.1.2.3,0,.1-.1.2-.2.2-1,0-1.1.1-1.5,1.1,0,.1-.1.2-.2.2Z"/>
      </g>
      <path class="cls-2" d="M26.8,25c-3.4-.2-5.4-2.1-5.5-5.5-.1-4.1,0-8.2,0-12.2,0-3.2,2.3-5.2,5.5-5.2,4.1,0,8.2,0,12.3-.1,2.9,0,5.5,2.7,5.3,5.9-.2,4,.2,8.1,0,12.1-.1,1.8-.9,3.1-2.2,4.1-.7.6-1.6.8-2.5.6-3.6-.6-7.2-.6-10.7.2-.7.1-1.3.2-2.1.2M27.5,13.4c-.3,1.9.8,3.5,1,3.7.6.8,1.3,1.3,1.5,1.4,1.6,1,3.4.8,3.9.7.6-.1,2.9-.5,4-2.5,1-1.8.6-4-.5-5.5-1.7-2.2-4.4-2-4.7-2-2.3.2-4.8,1.8-5.2,4.2Z"/>
      <circle class="cls-14" cx="33" cy="14.4" r="4.2"/>
      <path class="cls-2" d="M61.3,12.3c3.4-5.2,8.7-4.7,12.6,1.1.6-.4.7-1.1,1.1-1.6,1.7-2.6,4.3-3.8,7.1-3.1.6.1,1.1.4,1.6.8.6.5,1.1,1.2.8,2-.3,1-1.2.6-1.8.6-3.5-.4-5.4,1.2-5.1,4.3.2,2.3,2.2,3.7,4.5,3.1.1,0,.2,0,.3-.1,1-.5,1.9-.4,2.3.7.4,1.1-.3,1.8-1.2,2.3-1.7,1.1-4.7.9-6.4-.4-1.5-1.1-2.4-2.5-3.2-4.4-1.3,2.8-2.9,4.9-6,5.2-3.2.4-5.2-1.2-6.6-3.9-.2,0-.3,0-.3.1-1.5,4.7-7.6,5.2-11.1,2.2-.6-.5-1.4-1.1-.8-2.1.6-.9,1.4-1.1,2.5-.6,1.1.6,2.3,1.1,3.6,1,1.1,0,1.8-.5,2.1-1.6.3-1.1-.5-1.6-1.3-2-1.5-.6-3-1-4.4-1.8-2.1-1.2-3.1-3-2.8-5.3.3-2.3,1.7-3.6,3.8-4.3,2-.6,4-.6,6,.2.9.3,2.1.5,1.8,1.9-.3,1.1-2.2,1.9-3.2,1.5-.8-.3-1.6-.4-2.4-.4-1,0-2.1.3-2.3,1.4-.2,1.1.7,1.6,1.6,2,.8.4,1.6.7,2.5.9,1.6.5,2.9,1.3,4,2.7.3-.9.7-1.7,1-2.7M67.1,19.6c1.6,0,2.7-.9,3.1-2.5.4-1.4.4-2.9-.8-4-1-1-2.3-1.1-3.5-.7-1.3.5-1.7,1.7-1.9,2.9-.2,1.7.9,3.3,3,4.3Z"/>
      <path class="cls-2" d="M115.7,5.2c.8.5.9,1,.4,1.7-.7.8-1.2,1.8-2.5,1.3-1.1-.4-2.3-.8-3.5-.2-.7.3-1.3.8-1.3,1.6,0,.9.6,1.3,1.3,1.5,1.2.5,2.4.8,3.6,1.2,3,1.2,4.4,3.8,3.6,6.7-.8,2.7-3.9,4.5-6.8,4-1.6-.3-3.1-.7-4.3-1.8-.6-.6-1.3-1.3-.5-2.1.7-.8,1.4-1.4,2.5-.6,1.1.8,2.4,1.1,3.8.9.9-.1,1.6-.5,1.8-1.4.2-.9-.6-1.4-1.2-1.8-.8-.4-1.6-.6-2.5-1-.8-.3-1.5-.7-2.2-1-2-1.1-3.1-2.8-2.8-5.1.3-2.4,1.8-3.9,4-4.5,2.3-.7,4.6-.5,6.8.8Z"/>
      <path class="cls-2" d="M141.9,19.3c.7-.2,1.3-.4,1.8-.6.9-.3,1.4.3,1.9.9.6.8,0,1.2-.4,1.7-3.4,3.3-9.8,1.6-11-3-1.2-4.6.9-8.8,5-9.7,4-.9,8.2,3.3,7.5,7.3-.2.9-.8.9-1.5.9-2,0-4,0-6,0-.5,0-1.1-.1-1.6.2.1,2,1.7,2.9,4.2,2.2M141.4,12.4c-1.4-.4-2.5-.3-3.3,1.3,1.6.1,3.1.2,4.7,0-.3-.6-.7-.9-1.3-1.3Z"/>
      <path class="cls-2" d="M90.8,10c2.1-1.9,4.5-1.7,6.8-.8,2.2.9,2.7,2.9,2.8,5,0,2.1,0,4.3,0,6.4,0,2.2-.5,2.6-2.7,2-.6-.2-1-.2-1.6,0-2.5.9-4.8.2-6.2-1.6-1.2-1.6-1.4-3.8-.3-5.4,1.2-1.9,3.8-2.8,6.3-2.1.3,0,.5.1.8.2-.3-1.5-1.2-2-2.9-1.8-.4,0-.9.2-1.3.3-.7.3-1.5.7-2.1-.1-.6-.8-.1-1.4.4-2.2M94.3,16.5c-1.1.2-2,.6-1.7,1.9.3,1.3,1.4,1.3,2.5,1.2.4,0,.7-.2,1.1-.4,1-.6,1-1.7,0-2.3-.5-.3-1-.3-1.8-.3Z"/>
      <path class="cls-2" d="M126.6,12.1c-.8,0-1.5,0-2.1,0-2.1,0-2.6-.7-2.1-2.8.2-.8.8-.9,1.4-.9,3.1,0,6.3,0,9.4,0,.6,0,1.2,0,1.5.7.3.7,0,1.2-.4,1.7-1.8,2.2-3.7,4.4-5.5,6.6-.5.6-.9,1.2-1.7,2.2,2.1,0,3.8,0,5.6,0,1,0,1.7,0,1.6,1.4,0,1.1-.2,1.9-1.6,1.8-2.9,0-5.8,0-8.8,0-.8,0-1.7.2-2-.8-.3-.9-.2-1.8.5-2.6,1.8-2,3.6-4,5.3-6.1.2-.3.5-.6.7-.9-.5-.5-1.1-.3-1.8-.4Z"/>
      <path class="cls-2" d="M103.2,3.4c1.4,0,1.1,1,1.1,1.7.4,4.2,0,8.4,0,12.5,0,1.3,0,2.5,0,3.8,0,1.3-.7,1.4-1.7,1.4-1,0-1.9,0-1.8-1.4,0-2.8,0-5.6,0-8.4,0-2.5.1-5,0-7.4,0-1.6.5-2.4,2.3-2.1Z"/>
      <path class="cls-2" d="M147.2,9.2c1.2-.5,2.2-.9,2.3,1,1.3-.9,2.3-1.8,3.7-1.8.8,0,1.6,0,1.4,1.1-.1.9.8,2.3-1,2.7-2.3.5-2.6.9-3,3.2-.4,2.1-.2,4.2-.3,6.3,0,1.3-.8,1.2-1.7,1.2-.8,0-1.7.1-1.6-1.1.2-4,0-8-.2-12,0-.2.1-.3.3-.5Z"/>
      <path class="cls-2" d="M117.8,20.7c0-3.3,0-6.4,0-9.6,0-1.1.3-1.8,1.6-1.7,1.1,0,1.8.2,1.9,1.6.2,3.3.1,6.6.2,9.9,0,1.3-.3,2-1.9,2-1.6,0-1.9-.8-1.8-2.2Z"/>
      <path class="cls-2" d="M85.8,22.7c-.6-.5-.5-1.1-.5-1.6,0-3.4,0-6.7,0-10.1,0-1.2.4-1.8,1.7-1.8,1.3,0,1.8.5,1.8,1.9,0,3,0,6.1,0,9.1,0,2.8,0,2.8-3,2.6Z"/>
      <path class="cls-2" d="M121.6,6.9c-.4,1.2-1.2,1.7-2.3,1.4-1.1-.3-1.4-1.1-1.5-2.1,0-1.1.4-1.8,1.4-2.2,1.6-.7,2.8.7,2.5,2.9Z"/>
      <path class="cls-2" d="M87.3,4.1c1.5.4,2.1,1.3,1.7,2.6-.3,1.1-1.1,1.8-2.3,1.6-1.2-.2-1.7-1.1-1.7-2.2,0-1.4.8-2.1,2.3-2Z"/>
      <rect class="cls-4" x="33.2" y="11.6" width="7.1" height="10"/>
      <path class="cls-18" d="M27.1,13.8c-.2-.2-.4-.5-.5-.8-.8-2.2,1.7-6.3,5.1-7,3-.7,6.6,1.3,8.1,5"/>
      <path class="cls-2" d="M34.7,15.8"/>
      <path class="cls-2" d="M39.7,7.5"/>
      <path class="cls-12" d="M38.8,6.5c0-.4.3-1,.7-1,.5,0,.9.4.8.9,0,.4-.5.7-.9.7-.3,0-.6-.3-.7-.6Z"/>
      <path class="cls-12" d="M48.8-5.9"/>
      <path class="cls-12" d="M49.8-12.9"/>
    </g>
  </g>
</svg>